<svg xmlns="http://www.w3.org/2000/svg" width="457" height="218" viewBox="0 0 457 218">
  <defs>
    <style>
      .cls-1 {
        fill-rule: evenodd;
      }
    </style>
  </defs>
  <path class="cls-1" d="M409,185c-9.36-3.233-17.123-10.321-23-20,0,0-11.555,20-13,20s-8-6-8-6l-18,11a18.624,18.624,0,0,1-8-2c-2.558-1.315-4.368-3.5-7-6a26.086,26.086,0,0,1-3-3c-3.3-4.445-3.148-9.571-3-13,0.376-8.709,1.037-17.282,2-26a123.432,123.432,0,0,1-7,11c-2.451,3.439-4.871,5.353-7,9-2.991,5.125-4.252,9.855-9,12a11.742,11.742,0,0,1-5,1,3.6,3.6,0,0,1-2,0c-2.855-.893-4.607-6.081-4-14a61.389,61.389,0,0,1-8,8c-2.895,2.406-5.368,3.308-8,6a25.362,25.362,0,0,1-5,4c-0.675.383-1.3,0.662-2,1-1.9.921-3.476,2.181-5,3-7.146,3.839-15.584,1.907-20,0-0.326-.141-0.64-0.285-0.958-0.44,0.244,0.451.537,1.134,0.958,1.94,0.693,1.327,1.288,2.048,1,2.5-0.351.551-1.638,0.458-2.5,0a2.632,2.632,0,0,1-1.5-2.5c0.121-.632.676-0.863,1-1.5a8.148,8.148,0,0,1,.32-0.806A23.655,23.655,0,0,1,237,174c-1.324,3.826-3.731,7.645-7,8a4.643,4.643,0,0,1-1,0l-5-1a17.387,17.387,0,0,1-3-4,18.35,18.35,0,0,1-2-11,15.246,15.246,0,0,1,6-2,15.956,15.956,0,0,1,11,3,61.553,61.553,0,0,1,6-27,58.839,58.839,0,0,1,2.914-5.243c-0.385-.18-0.84-0.421-1.414-0.757-1-.584-1.5-1-1.5-1.5a1.5,1.5,0,0,1,1.5-1.5c0.5,0,.916.5,1.5,1.5,0.253,0.433.45,0.795,0.616,1.121,0.133-.2.249-0.418,0.384-0.621a13.74,13.74,0,0,1,6,0,13.88,13.88,0,0,1,7,4l-0.645,2.148A2.924,2.924,0,0,1,260.5,138c1.341-.014,2.674,1.185,2.5,2a1.851,1.851,0,0,1-2,1c-0.865-.134-1.054-0.861-2-1-0.362-.053-0.737.075-0.911,0.035A40.037,40.037,0,0,0,250,167c-1.214,2.181-1.972,4.556-1,6,1.137,1.689,4.66,1.731,11,0a31.534,31.534,0,0,0,9-4,28.237,28.237,0,0,0,5-4c1.131-1.287,1.59-2.2,3-3,1.63-.927,3.371-0.656,5-2a10.548,10.548,0,0,0,2-3,10.907,10.907,0,0,1,2-3c1.633-1.419,3.913-1.5,5-2,2.1-.975,3.756-2.954,5-6q2.5-14,5-28l13,1q-1,10.5-2,21a49.823,49.823,0,0,0,9-8c2.835-3.231,4.75-6.664,8-10a41.836,41.836,0,0,1,9-7c3.863-.182,7.4.723,10,3a10.974,10.974,0,0,1,1,1,19.163,19.163,0,0,1,1,3c1.407,5.77-.466,11.473-1,13-4.145,11.852-1.838,19.8-6,32-0.743,2.178-3.309,9.36,0,13a6.8,6.8,0,0,0,4,2l14-17a30.6,30.6,0,0,1,0-13c0.8-3.482,2.547-6,3-10,0.442-3.905-.661-6.136-0.1-10.025,0.607-4.193,2.871-6.342,4.1-9.975,1.085-3.212,1.084-5.736,2-9a57.646,57.646,0,0,1,3-8,348.682,348.682,0,0,1,18-35c8.237-13.868,14.645-24.409,24-33a101.181,101.181,0,0,1,16-12c5.522,1.607,9.931,3.6,10,6,0.008,0.277,2.682,1.241,3,2,0.508,1.214-.448,1.671,0,2,2.346,1.723,1.773,6.875,0,13a26.876,26.876,0,0,1-2,10c-0.539,1.512-1.2,3.228-2,5a34.345,34.345,0,0,0-2,5c-0.949,4.008-3.71,4.949-5.04,7.112A42.327,42.327,0,0,1,421,88c-5.137,7.521-10.668,14.358-16.2,18.758a38.619,38.619,0,0,0-8.613,8.879c-0.757,1.18-1.348,2.243-2.191,3.363a26.431,26.431,0,0,1-8,7q-2,11-4,22a76.16,76.16,0,0,1,6-6,77.084,77.084,0,0,1,18-12c19.868-6.753,34.229-6.294,38,0a8.3,8.3,0,0,1,1,5c-1.309,1.694-2.621,3.334-4,5a27.66,27.66,0,0,1-5,5,29.607,29.607,0,0,1-8,4c-3.31,1.186-5.736,2.693-9,4a109.608,109.608,0,0,1-21,6,26.808,26.808,0,0,0,24,21,68.336,68.336,0,0,0,15-4c11.66-4.591,19.193-11.191,27-19,5.22-5.221,10.154-10.483,15-16q0.5,3,1,6C461.141,179.316,430.746,192.511,409,185Zm-12-84c0.249,0.094,1.305-2.187,2-3,4.356-5.1,11.469-10.048,14-14,3.879-6.057,4.3-7.291,9-12,3.727-3.733,3.588-2.6,8-11a26,26,0,0,0,2-6c0.477-2.018.258-2.635,2.985-3.919L437,37c-3.9,2-8.569,6.33-12,9-8.236,6.41-12.427,16.337-17,24C399.3,84.576,396.11,100.665,397,101Zm1.467,47.6c0.214,0.2,2.926-2.98,7.533-5.6,4.17-2.375,8.494-4.017,10-4s3.6,0.324,5-1c1.17-1.1.921-2.543,2-4,0.747-1.009,1.9-1.54,1.8-1.806-0.27-.686-6.681.525-12.8,3.806C403.071,140.789,398.13,148.287,398.467,148.6ZM427.5,26c-1.381,0-2.5-.672-2.5-1.5s1.119-1.5,2.5-1.5,2.5,0.672,2.5,1.5S428.881,26,427.5,26Zm-61,81c-1.021-.113-1.921-1.866-1.5-2.5a7.807,7.807,0,0,1,1-.5c0.575-.565.016-1.586,0.5-2,0.53-.453,2.033.055,2.5,1C369.747,104.513,367.84,107.149,366.5,107Zm-14,7c-1.467.64-2.291,1.224-2.5,1-0.281-.3.547-1.461,1-2a2.377,2.377,0,0,1,1.5-1,1.329,1.329,0,0,1,1.5,1C354,113.4,353.375,113.619,352.5,114ZM289,118a2.046,2.046,0,0,1-2-2,2.977,2.977,0,0,1,1-1,3.054,3.054,0,0,1,1-1,1.757,1.757,0,0,1,2,1,1.649,1.649,0,0,1,0,1C290.868,116.5,290.316,117.987,289,118Zm-7-35a7.729,7.729,0,0,1,.829-0.59c-2.1,3.025-4.812,6.6-4.829,6.59A13.5,13.5,0,0,1,282,83Zm3-4a1.594,1.594,0,0,1,1-1,1.149,1.149,0,0,1,1,1c0.094,1.007-2.579,2.383-4.171,3.41A35.428,35.428,0,0,0,285,79Zm-7,28a0.96,0.96,0,0,1-1,0,1.277,1.277,0,0,1-1-1,1,1,0,0,1,1-1,1.277,1.277,0,0,1,1,1A0.96,0.96,0,0,1,278,107Zm1,8a3.553,3.553,0,0,1,3,1,5.653,5.653,0,0,1,1,2.5,4.962,4.962,0,0,1,0,2.5c-0.725,1.2-2.709,1.305-4,1a6.733,6.733,0,0,1-2-1c-1.391-1-2-2.025-2-2.5a4.743,4.743,0,0,1,2-2.5A4.828,4.828,0,0,1,279,115Zm-4.5-6a1.916,1.916,0,0,1-1.5-1.5,1.061,1.061,0,0,1,1.5-1.5,1.916,1.916,0,0,1,1.5,1.5A1.5,1.5,0,0,1,274.5,109Zm-3,48a1.083,1.083,0,1,1,1.5-1A1.329,1.329,0,0,1,271.5,157Zm-24.451-38.859c0.519,0.415-.077,3.027-2.049,3.859-0.965.407-2.383,0.445-2.6-.075C241.962,120.886,246.278,117.525,247.049,118.141ZM270,111c-0.193,1.547.2,2.764-1,4-1.342,1.385-2,3.05-3,4a11.986,11.986,0,0,1-4,3,9.478,9.478,0,0,1-10-2c-0.32-.335-0.593-1.389-1-2-0.912-1.368-1.277-2.679-2-4s-8.334.857-8,0c0.38-.976,9.812-1.7,8-5-0.353-.644.173-1.213,0-2-0.389-1.767,1.951-3.953,4-5a9.987,9.987,0,0,1,4-1c2.263-.254-1.652-3.677,1-4,2.6-.317-0.908,3.933.949,3.957,2.692,0.036,5.328.326,6.051,1.043,4.222,4.185,1.92,2.086,4,2,0.912-.038-2.144.687,0,3A6.178,6.178,0,0,1,270,111Zm-35,21v-0.561a4.28,4.28,0,0,0,0-.439v0.439c-0.089,1.828-1.416,1.774-2,1.561a1.5,1.5,0,0,1,0-2C233.627,130.443,235.936,130.35,235,132Zm1.5-5a2.411,2.411,0,0,1-2.056-1.3,1.725,1.725,0,0,1,0-3.4A2.411,2.411,0,0,1,236.5,121,3.05,3.05,0,0,1,236.5,127ZM226,128c0.038-.756,2.171-1.8,4-1,1.508,0.661,2.422,2.406,2,3C231.26,131.04,225.939,129.219,226,128ZM62,241l-8-13s47.273-15.654,40-64c-7.771-51.656-71-50-71-50V68L38,53H87V69H49l-9,9v23s46.217-.846,65,45S93.228,236.471,62,241ZM23,53h9l-9,9V53Z" transform="translate(-23 -23)"/>
</svg>
