<svg xmlns="http://www.w3.org/2000/svg" width="347.062" height="46.062" viewBox="0 0 347.062 46.062">
  <defs>
    <style>
      .cls-1, .cls-2 {
        fill-rule: evenodd;
      }

      .cls-1 {
        opacity: 0.22;
      }

      .cls-2 {
        fill: #f59293;
      }
    </style>
  </defs>
  <path id="the_original_Disappearing_Link" data-name="the original Disappearing Link" class="cls-1" d="M150.56,237.18a12.854,12.854,0,0,0,7.109-1.7,10.879,10.879,0,0,0,3.951-4.633,15.688,15.688,0,0,0,1.356-6.654,13.712,13.712,0,0,0-1.424-6.494,9.9,9.9,0,0,0-3.824-4.069,13.549,13.549,0,0,0-6.713-1.381H140.284V237.18H150.56Zm-5.088-21.512h3.134q3.824,0,5.433,1.052a6.969,6.969,0,0,1,2.518,3.092,11.378,11.378,0,0,1,.91,4.683,12.943,12.943,0,0,1-.935,5.012,6.347,6.347,0,0,1-2.544,3.192,9.287,9.287,0,0,1-4.641.944h-3.875V215.668Zm25.979,21.512V212.248h-5.189V237.18h5.189ZM181.96,237.8q5.1,0,7.437-2.172a7.092,7.092,0,0,0,1.216-9.091q-1.138-1.7-5.27-4.011l-1.8-.994a10.805,10.805,0,0,1-2.929-2.074,2.578,2.578,0,0,1-.6-1.636,2.477,2.477,0,0,1,.983-1.964,4.383,4.383,0,0,1,2.866-.818A18.936,18.936,0,0,1,190,216.478v-3.994a30.937,30.937,0,0,0-6.79-.86,8.744,8.744,0,0,0-6.186,2.007,6.556,6.556,0,0,0-.86,8.765,15.782,15.782,0,0,0,4.879,3.709l1.682,0.928a10.064,10.064,0,0,1,2.949,2.141,3.168,3.168,0,0,1,.6,1.888,3.06,3.06,0,0,1-1.076,2.344,4.715,4.715,0,0,1-3.261.978,16.36,16.36,0,0,1-2.655-.238,21.964,21.964,0,0,1-4.363-1.465v4.28a34.8,34.8,0,0,0,7.038.843h0Zm13.739-.624,2.591-6.654h10.322l2.59,6.654h5.332l-9.7-24.932h-5.2l-9.709,24.932H195.7Zm7.754-19.912,3.868,9.939h-7.739Zm20.309,19.912v-9.771h2.115a10.69,10.69,0,0,0,7.06-2.19,7.8,7.8,0,0,0,2.635-6.367,7.539,7.539,0,0,0-.773-3.606,5.276,5.276,0,0,0-2.293-2.215,12.489,12.489,0,0,0-5.258-.783h-8.573V237.18h5.087Zm0-21.512h1.951a6.176,6.176,0,0,1,2.837.488,3.073,3.073,0,0,1,1.309,1.339,4.2,4.2,0,0,1,.423,1.9,4.469,4.469,0,0,1-1.341,3.226,5.659,5.659,0,0,1-4.2,1.373h-0.976v-8.322Zm19.779,21.512v-9.771h2.115a10.69,10.69,0,0,0,7.06-2.19,7.807,7.807,0,0,0,2.635-6.367,7.539,7.539,0,0,0-.773-3.606,5.281,5.281,0,0,0-2.293-2.215,12.489,12.489,0,0,0-5.258-.783h-8.573V237.18h5.087Zm0-21.512h1.951a6.176,6.176,0,0,1,2.837.488,3.073,3.073,0,0,1,1.309,1.339,4.2,4.2,0,0,1,.423,1.9,4.466,4.466,0,0,1-1.342,3.226,5.655,5.655,0,0,1-4.2,1.373h-0.976v-8.322ZM275,237.18v-3.537H263.421v-7.581h8.912v-3.437h-8.912v-6.941H274.2v-3.436h-15.97V237.18H275Zm3.626,0,2.592-6.654h10.322l2.59,6.654h5.332l-9.7-24.932h-5.2l-9.709,24.932h3.777Zm7.755-19.912,3.867,9.939h-7.738Zm20.107,19.912V226.988h2.853l6.2,10.192h6.319l-8.162-11.64a8.032,8.032,0,0,0,3.572-2.974,7.465,7.465,0,0,0,1.263-4.136,6.317,6.317,0,0,0-.867-3.293,5.433,5.433,0,0,0-2.367-2.173,10.464,10.464,0,0,0-4.364-.716H301.6V237.18h4.885Zm0-21.512h1.807q3.057,0,4.053.9a3.12,3.12,0,0,1,1,2.434,4.676,4.676,0,0,1-1.226,3.167q-1.224,1.4-4.437,1.4h-1.194v-7.9ZM329.21,237.18V212.248h-5.189V237.18h5.189Zm9.031,0V220.149l11.451,17.031h4.654V212.248h-4.161v17.031l-11.531-17.031H334.08V237.18h4.161Zm40.887-11.32H373.94v8.2a10.32,10.32,0,0,1-2.089.252,8.06,8.06,0,0,1-6.4-2.594,10.23,10.23,0,0,1-2.274-6.991,11.885,11.885,0,0,1,1.929-6.857q1.929-2.829,6.309-2.83a19.4,19.4,0,0,1,2.83.219,31.664,31.664,0,0,1,4.868,1.382v-4.06a34.887,34.887,0,0,0-8.119-.961,14.972,14.972,0,0,0-7.691,1.694,10.547,10.547,0,0,0-4.237,4.666,15.548,15.548,0,0,0-1.4,6.7,13.943,13.943,0,0,0,3.184,9.409q3.184,3.714,10.192,3.715a28,28,0,0,0,3.226-.177,41.238,41.238,0,0,0,4.86-1.036V225.86Zm37.942,11.32V212.248h-5.188V237.18h5.188Zm9.031,0V220.149l11.451,17.031h4.654V212.248h-4.161v17.031l-11.531-17.031H421.94V237.18H426.1Zm25.962,0V224.916l9.156,12.264h6.422L457.208,223.4l8.351-11.154H461.3l-9.24,12.1V212.248h-4.987V237.18h4.987Z" transform="translate(-120.594 -191.75)"/>
  <path id="the_original_Disappearing_Link-2" data-name="the original Disappearing Link" class="cls-2" d="M125.59,204.6a3.248,3.248,0,0,1-1.16.234,1.034,1.034,0,0,1-.62-0.207,0.7,0.7,0,0,1-.19-0.743,5.417,5.417,0,0,1,.282-0.912l1.879-5.007H127.9l0.649-1.732h-2.122l0.79-2.1-2.9.374-0.651,1.731h-1.528l-0.688,1.732h1.565l-1.953,5.194a8.706,8.706,0,0,0-.425,1.4,1.806,1.806,0,0,0,.358,1.465,2.415,2.415,0,0,0,2,.659,7.275,7.275,0,0,0,1.905-.271Zm3.938,1.91,1.286-3.407a39.3,39.3,0,0,1,2.705-3.023q1.513-1.535,2.171-1.535,0.394,0,.3.524a1.919,1.919,0,0,1-.116.393l-2.647,7.048H136l2.727-7.234a7.046,7.046,0,0,0,.347-1.226,1.819,1.819,0,0,0-.254-1.536,1.488,1.488,0,0,0-1.2-.515,4.665,4.665,0,0,0-2.838,1.217,16.225,16.225,0,0,0-2.987,3.285l3.292-8.769h-2.768l-5.551,14.778h2.767Zm18.674-3.126a14.239,14.239,0,0,1-2.788,1.141,8.161,8.161,0,0,1-2.033.365,1.956,1.956,0,0,1-1.249-.407,1.689,1.689,0,0,1-.362-1.614,10.676,10.676,0,0,0,3.648-.81,7.282,7.282,0,0,0,2.557-1.722,4.3,4.3,0,0,0,1.134-2.148,1.719,1.719,0,0,0-.415-1.581,2.441,2.441,0,0,0-1.832-.609,6.644,6.644,0,0,0-3.367.978,9.664,9.664,0,0,0-2.956,2.738,8.654,8.654,0,0,0-1.594,3.566,3.577,3.577,0,0,0,.1,1.712,2.189,2.189,0,0,0,1.108,1.287,4.165,4.165,0,0,0,2.022.464,12.46,12.46,0,0,0,2.262-.262,14.511,14.511,0,0,0,2.954-.946Zm-4.254-4.706a2.838,2.838,0,0,1,1.689-.826,0.721,0.721,0,0,1,.646.276,0.837,0.837,0,0,1,.122.639,2.684,2.684,0,0,1-1.2,1.6,4.875,4.875,0,0,1-2.922.769A6.467,6.467,0,0,1,143.948,198.681Zm17.5,7.116a9.506,9.506,0,0,0,2.914-2.752,8.878,8.878,0,0,0,1.6-3.608,2.769,2.769,0,0,0-.6-2.48,3.5,3.5,0,0,0-2.714-.955,6.856,6.856,0,0,0-3.456.946,9.378,9.378,0,0,0-2.942,2.751,8.887,8.887,0,0,0-1.61,3.613,2.745,2.745,0,0,0,.614,2.485,3.445,3.445,0,0,0,2.645.95A6.913,6.913,0,0,0,161.452,205.8Zm-3.677-1.386a2.321,2.321,0,0,1-.135-1.567,7.949,7.949,0,0,1,.9-2.5,6.283,6.283,0,0,1,1.51-1.876,2.728,2.728,0,0,1,1.713-.665,1.145,1.145,0,0,1,1.08.538,2.384,2.384,0,0,1,.128,1.587,7.942,7.942,0,0,1-.9,2.475,6.339,6.339,0,0,1-1.5,1.881,2.751,2.751,0,0,1-1.769.67A1.11,1.11,0,0,1,157.775,204.411Zm10.166,2.1,1.286-3.407a35.01,35.01,0,0,1,2.87-3.14,4.065,4.065,0,0,1,2.511-1.418,1.671,1.671,0,0,1,.75.206l1.267-2.621a2.307,2.307,0,0,0-.754-0.131,4.664,4.664,0,0,0-2.654,1.2,15,15,0,0,0-3.014,3.3l1.6-4.268h-2.767l-3.861,10.277h2.768Zm9.041,0,3.87-10.277h-2.777l-3.86,10.277h2.767Zm4.516-12.008,0.915-2.424h-2.771l-0.914,2.424h2.77Zm0.459,15.929a8.634,8.634,0,0,0,3.011-.539,5.664,5.664,0,0,0,2.349-1.553,13.056,13.056,0,0,0,1.922-3.761l3.144-8.345H189.83a7.99,7.99,0,0,0-.9-0.177,5.747,5.747,0,0,0-.772-0.057,6.314,6.314,0,0,0-3.359,1.086,11.218,11.218,0,0,0-3.152,3.1,9.518,9.518,0,0,0-1.724,3.729,2.583,2.583,0,0,0,.265,1.844,1.576,1.576,0,0,0,1.451.749,3.418,3.418,0,0,0,1.37-.315,7.061,7.061,0,0,0,1.381-.8,11.047,11.047,0,0,0,.908-0.722,23.719,23.719,0,0,0,1.722-2.026q0.108-.141.333-0.412l-1.551,4.127a4.25,4.25,0,0,1-1.007,1.563,2.826,2.826,0,0,1-2.061.664,7.347,7.347,0,0,1-1.164-.093,7.919,7.919,0,0,1-1.185-.29,15.492,15.492,0,0,1-1.547-.627l-0.289,2.33a11.108,11.108,0,0,0,3.408.524h0Zm3.422-7.59a4.075,4.075,0,0,1-2.1,1.3,0.608,0.608,0,0,1-.361-0.127,0.74,0.74,0,0,1-.076-0.7,8.364,8.364,0,0,1,1.057-2.63,7.146,7.146,0,0,1,1.846-2.223,3.193,3.193,0,0,1,1.862-.734,3.107,3.107,0,0,1,.691.075,2.472,2.472,0,0,1,.626.234l-0.651,1.731A31.575,31.575,0,0,1,185.379,202.844Zm8.488,3.669,3.87-10.277h-2.776L191.1,206.513h2.767Zm4.517-12.008,0.914-2.424h-2.771l-0.914,2.424h2.771Zm0.781,12.008,1.287-3.407a39.3,39.3,0,0,1,2.705-3.023q1.513-1.535,2.17-1.535c0.263,0,.363.175,0.3,0.524a1.983,1.983,0,0,1-.116.393l-2.648,7.048h2.767l2.727-7.234a7.055,7.055,0,0,0,.348-1.226,1.826,1.826,0,0,0-.254-1.536,1.488,1.488,0,0,0-1.2-.515,4.66,4.66,0,0,0-2.837,1.217,16.194,16.194,0,0,0-2.986,3.285l1.6-4.268h-2.767L196.4,206.513h2.767Zm17.933,0,3.86-10.277h-2.769a5.836,5.836,0,0,0-.768-0.177,4.3,4.3,0,0,0-.669-0.057,6.234,6.234,0,0,0-3.224,1.044,11.641,11.641,0,0,0-3.253,3.168,9.864,9.864,0,0,0-1.874,4,2.576,2.576,0,0,0,.281,1.722,1.516,1.516,0,0,0,1.443.815,4.829,4.829,0,0,0,2.872-1.3,15.3,15.3,0,0,0,2.938-3.208l-1.6,4.271H217.1Zm-2.947-3.828q-1.622,1.572-2.37,1.572a0.359,0.359,0,0,1-.383-0.243,1.013,1.013,0,0,1-.036-0.515,8.668,8.668,0,0,1,1.158-2.672,8.19,8.19,0,0,1,1.934-2.373,3.04,3.04,0,0,1,1.8-.72,2.455,2.455,0,0,1,.64.084,2.416,2.416,0,0,1,.609.262l-0.641,1.7A35.067,35.067,0,0,1,214.151,202.685Zm8.245,3.828,5.552-14.778H225.18l-5.551,14.778H222.4ZM409.488,237.18v-3.537h-11.1v-21.4H393.2V237.18h16.29Z" transform="translate(-120.594 -191.75)"/>
</svg>
