<svg xmlns="http://www.w3.org/2000/svg" width="224" height="172" viewBox="0 0 224 172">
  <defs>
    <style>
      .cls-1 {
        fill: #9d1e22;
        fill-rule: evenodd;
      }
    </style>
  </defs>
  <path class="cls-1" d="M226.942,103.39C215.541,98.307,209,115,209,115l-1,58H192V89h17v16s25.868-32.045,36-10C245,113.8,225.424,101.673,226.942,103.39ZM171,113h0c-4.326-30.217-36-2-36-2v62H118V52l11-5h6v56.932C154.5,83.168,171,88,171,88h0s17-1.926,17,25.368V173H171V113ZM57,219s-19.063-22.551-19.823-24.882c-1.081-3.313-3.806-10.4-5.959-15.906a7,7,0,1,1-4.732-13.043C24.867,156.626,22.582,144.02,23,143c1.594-3.885,5-16,5-16s3.364,12.115,4.938,16c0.414,1.021-1.843,13.624-3.443,22.164a6.99,6.99,0,0,1,3.579,11.648c3.708,4.657,8.589,10.719,10.945,13.356C45.652,192,57,219,57,219Z" transform="translate(-21 -47)"/>
</svg>
