<svg xmlns="http://www.w3.org/2000/svg" width="47" height="46.875" viewBox="0 0 47 46.875">
  <defs>
    <style>
      .cls-1, .cls-2 {
        fill: #2fa9e0;
      }

      .cls-1 {
        opacity: 0.3;
      }

      .cls-2, .cls-3, .cls-4, .cls-5 {
        fill-rule: evenodd;
      }

      .cls-3 {
        fill: #565756;
        opacity: 0.5;
        mix-blend-mode: multiply;
      }

      .cls-4 {
        fill: #00394e;
      }

      .cls-5 {
        fill: #fff;
      }
    </style>
  </defs>
  <rect class="cls-1" x="0.5" y="10.375" width="34.5" height="35"/>
  <path class="cls-2" d="M24.479,12.173C24.311,12.39,24.162,12.8,24,13H3V45H35V19a22.433,22.433,0,0,1,2-1.694V47H1V11H25.339C25.053,11.412,24.763,11.808,24.479,12.173Z" transform="translate(-1 -1.125)"/>
  <path class="cls-3" d="M48,46c-1.81-1-9.293-.974-9.293-0.974L37,45V39H35v3s-3.011-1.189-1.419-1.662c2.162-.676.977-0.665,0.5-0.746A27.181,27.181,0,0,0,23.5,40.5c-14.567-3.056-15.831-2.61-2,.5-4.791.757-10.113,1.939-9.382,2.064,0.473,0.081.285,0.287,4.5-.045,3.6-.3,4.669-0.525,13.146.92C32.291,44.37,33.318,44.281,33,45h2V43h2v5s2.969-.176,6.222-0.69C43.263,47.3,49.811,47,48,46Z" transform="translate(-1 -1.125)"/>
  <path class="cls-4" d="M43.438,14.625c0.368,1.236-2.168,1.03-2.168,1.03-1.926-1.567-4.716,1.784-6.743,4.4-6.808,8.771-5.277,9.68-2.835,12.963,2.755,3.854,1.6,3.839,1.217,4.329C32.321,38.1,24.349,36.194,19,32c-0.015,0-5.307,6.853-5.307,6.853A2.442,2.442,0,0,1,10.962,36.5C12.65,33.981,14.024,32.681,16,30c-5.384-4.222-8.367-11.258-7.779-12.015,0.38-.489,0-1.684,4.41.083,4.127,2.245,5.04,2.875,11.848-5.9,2.027-2.612,4.445-6.7,2.451-8.2,0,0-1.1-1.432-.305-2.489,1.058-.359,1.412-1.705,10.05,5.068C36.721,6.586,44.5,13.264,43.438,14.625Z" transform="translate(-1 -1.125)"/>
  <path class="cls-5" d="M39.375,12.375C36.315,10.51,23.913.2,30,3,32.221,4.023,48.235,17.772,39.375,12.375ZM33,12c-4.806-2.247-3.582-2.028-12,8-2.12,2.019-4.448,3.275-8,1,3.811,4.349,2.561,4.929,13,12-8.213-3.748-11.641-7.758-15.834-13.789-0.261-.376-0.556-1.1,4.628,1.115C16.385,20.993,18.571,21.937,29,7,28.548,9.072,34.2,12.561,33,12Z" transform="translate(-1 -1.125)"/>
</svg>
