<svg xmlns="http://www.w3.org/2000/svg" width="36" height="36" viewBox="0 0 36 36">
  <defs>
    <style>
      .cls-1 {
        fill: #ebebeb;
      }

      .cls-2 {
        fill: #a6a5a5;
      }

      .cls-2, .cls-3, .cls-4 {
        fill-rule: evenodd;
      }

      .cls-3 {
        opacity: 0.3;
      }

      .cls-4 {
        fill: #363636;
      }
    </style>
  </defs>
  <rect class="cls-1" x="0.5" y="0.5" width="34.5" height="35"/>
  <path class="cls-2" d="M1,47V11H37V47H1ZM35.2,12.8H2.8V45.2H35.2V12.8Z" transform="translate(-1 -11)"/>
  <path class="cls-3" d="M27.654,39.949l-0.1.152c0.515,0.276-3.181.447-5.574,0.546-8.035.331-8.214-.248-9.76-0.657A6.322,6.322,0,0,0,9.6,39.664c-0.694.029,0.876,1.273,2.2,2.033-0.007,0-7.553.312-7.553,0.312l0.428,0.246s7.542-.312,7.553-0.312c1.332,0.765,2.785,1.633,3.479,1.6,0.448-.019,1.159.076,1.234-0.475,0.007-.476-0.5-0.668,7.531-1,2.393-.1,6.148-0.235,6.6.045l0.641,0.126,1.539-.057-4.027-2.315Zm5.1,2.154a5,5,0,0,1-.641.026c0.267-.11-0.047-0.422-0.047-0.422Z" transform="translate(-1 -11)"/>
  <path class="cls-4" d="M28.931,40.477L28.826,39.4c0.56-1.957-3.457-3.166-6.057-3.865-8.732-2.348-8.926-.9-10.606,2-2.009,3.315-2.366,2.434-2.853,2.3C8.556,39.633,9.562,34.385,11,29c-0.008-.01-7.509-2.116-7.509-2.116L3,24.552l0.957-1.411s8.2,2.212,8.208,2.207c1.447-5.42,3.026-10.566,3.78-10.363,0.487,0.131,1.259-.54,1.341,3.362,0.007,3.371-.548,4.729,8.184,7.077,2.6,0.7,6.681,1.667,7.175-.322l0.7-.893,1.672,0.4L30.637,41ZM31.2,27.715S14.885,25.781,16.284,20.7c0.164-7.806-.808,0-0.808,0-1.9,7.1,16.264,4.991,14.7,10.86Zm3.278-2.495s-0.776-.4-0.7-0.187a9.493,9.493,0,0,1-.051,2.987Z" transform="translate(-1 -11)"/>
</svg>
